# xmcd CD database file
#
# Track frame offsets:
#	150
#	14077
#	26855
#	37497
#	47402
#	57257
#	67717
#	78775
#	86357
#	95229
#	102830
#	113215
#	123542
#	135632
#	148655
#	158290
#	173220
#	183275
#	197065
#	211207
#	224345
#	237722
#	251112
#
# Disc length: 3500 seconds
#
# Revision: 0
# Processed by: cddbd v1.5.2PL0 Copyright (c) Steve Scherf et al.
# Submitted via: CDex 2.09
#
DISCID=4c0daa17
DTITLE=Slim Harpo - The Complete Excello Recordings Disk 1 - Harpo The King Bee
DYEAR=1997
DGENRE=Blues
TTITLE0=I'm A King Bee
TTITLE1=I Got Love If You Want It
TTITLE2=Wonderin' And Worryin' (alt take)
TTITLE3=Wonderin' And Worrin'
TTITLE4=Strange Love
TTITLE5=You'll Be Sorry One Day
TTITLE6=One More Day
TTITLE7=Bobby Sox Baby
TTITLE8=Bobby Sox Baby (alt take 1)
TTITLE9=Bobby Sox Baby (alt take 2)
TTITLE10=Buzz Me Babe
TTITLE11=Buzz Me Babe (alt take)
TTITLE12=Late Last Night
TTITLE13=Late Last Night (alt take)
TTITLE14=Yeah Yeah Baby
TTITLE15=Dream Girl
TTITLE16=Don't Start Cryin' Now
TTITLE17=What A Dream
TTITLE18=Blues Hang-Over
TTITLE19=My Home Is A Prison
TTITLE20=Please Don't Turn Me Down
TTITLE21=Moody Blues
TTITLE22=Rainin' In My Heart
EXTD=YEAR: 1997
EXTT0=
EXTT1=
EXTT2=
EXTT3=
EXTT4=
EXTT5=
EXTT6=
EXTT7=
EXTT8=
EXTT9=
EXTT10=
EXTT11=
EXTT12=
EXTT13=
EXTT14=
EXTT15=
EXTT16=
EXTT17=
EXTT18=
EXTT19=
EXTT20=
EXTT21=
EXTT22=
PLAYORDER=
